<svg xmlns="http://www.w3.org/2000/svg" xmlns:xlink="http://www.w3.org/1999/xlink" viewBox="0 0 956.94 728.92"><defs><linearGradient id="a" x1="1163.84" y1="712.57" x2="1143.68" y2="792.14" gradientTransform="matrix(2.98, 0, 0, -2.98, -2944.63, 2527.96)" gradientUnits="userSpaceOnUse"><stop offset="0" stop-color="#ff6c0e"/><stop offset="1" stop-color="#ffbf00"/></linearGradient></defs><path d="M84.82,552.42c56.55,0,84.82,37,84.82,71.77v78.29h-37V624.19c0-21.75-13-58.72-47.85-58.72S37,602.44,37,624.19v78.29H0V624.19c0-34.8,26.1-71.77,84.82-71.77" fill="#ff6c0e"/><path d="M585,706.83c-56.55,0-84.82-37-84.82-71.77V556.77h37v78.29c0,21.75,13,58.72,47.85,58.72s47.85-37,47.85-58.72V556.77h37v78.29c-2.18,34.8-28.27,71.77-84.82,71.77" fill="#ff6c0e"/><path d="M315.36,693.78a64.85,64.85,0,0,1-30.45,13.05c-37,6.53-87-19.57-89.17-73.94s52.19-78.3,87-78.3c58.72,2.18,80.47,47.85,80.47,73.95v76.12h-37V628.54c0-17.4-8.7-58.72-45.67-58.72s-47.85,34.79-47.85,58.72c0,17.4,4.35,56.54,45.67,58.72,13.05,0,30.45-2.18,37-6.53Z" fill="#ff6c0e"/><path d="M478.47,726.41c-4.35,2.17-17.4,4.35-32.62,0-17.4-4.35-45.67-13-45.67-71.78V489.34H435v65.25H467.6v23.92H435v84.82c0,32.63,8.7,45.68,17.4,47.85,8.7,4.35,23.93,2.18,26.1,2.18Z" fill="#ff6c0e"/><path d="M702.48,622c0-37,19.58-63.07,52.2-65.24,23.92-2.18,30.45,2.17,30.45,2.17v15.22s-13-4.34-26.1,0c-15.23,4.35-21.75,28.28-21.75,34.8v97.87h-37Z" fill="#ff6c0e"/><path d="M909.09,693.78a64.82,64.82,0,0,1-30.44,13.05c-37,6.53-87-19.57-89.17-73.94s52.19-78.3,87-78.3c58.72,2.18,80.47,47.85,80.47,73.95v76.12H920V628.54c0-17.4-8.7-58.72-45.67-58.72s-47.85,34.79-47.85,58.72c0,17.4,4.35,56.54,45.67,58.72,13,0,30.45-2.18,37-6.53Z" fill="#ff6c0e"/><path d="M482.82,132.67c-10.87,37-13.05,45.67-19.57,65.24-4.35,15.23-13.05,21.75-23.93,21.75-8.7,0-17.4-4.35-23.92-13-19.57-23.92-45.67-58.72-60.9-78.29-19.57-21.75-65.24-41.33-89.17-13-32.62,41.32,6.53,89.17,30.45,117.44,2.18,2.18,4.35,4.35,4.35,6.53,4.35,6.52,10.88,10.87,15.23,17.39,10.87,13.05,21.74,21.75,15.22,30.45-2.18,4.35-8.7,6.53-15.22,6.53-17.4,0-74-15.23-87-17.4-10.87-2.18-19.57-2.18-23.92,6.52-4.35,10.88,10.87,39.15,47.84,58.72s97.87,28.28,102.22,30.45c21.75,4.35,17.4,15.23,13.05,21.75L363.2,398c-4.35,4.35-6.52,6.53-6.52,10.87,2.17,13.05,32.62,17.4,50,19.58s39.15,4.35,54.37-2.18,15.23-15.22,26.1-19.57,15.22-2.17,28.27,0c4.35,2.17,10.88,2.17,19.58,4.35,19.57,4.35,52.19,0,71.77-6.52,34.8-10.88,50-23.93,50-28.28s-6.53-6.52-13-6.52c-6.52-2.18-32.62-6.53-41.32-10.88-8.7-6.52-2.18-15.22,15.22-21.75s74-30.44,95.7-50,41.32-52.19,23.92-69.59c-15.22-17.4-41.32-4.35-58.72,4.35-2.18,2.17-4.35,2.17-6.53,4.35-21.75,10.87-58.72,30.44-71.77,32.62-10.87,2.17-30.45,2.17-21.75-23.92,10.88-30.45,17.4-50,23.93-69.6,8.7-23.92,21.75-80.47-34.8-97.87C526.32,52.2,498,87,482.82,132.67Zm-52.2,17.4S448,91.34,461.07,65.25C482.82,21.75,522,0,563.29,0c6.52,0,13.05,0,17.4,2.17,84.82,15.23,87,102.22,80.47,132.67-6.53,28.27-17.4,56.55-19.57,65.25v2.17c6.52-2.17,37-17.4,69.59-32.62,32.62-13,91.35-13,76.12,52.2-15.22,67.42-91.34,106.56-100,108.74-6.53,4.35-17.4,8.7-19.58,10.87s-2.17,2.18,0,2.18,4.35,0,8.7,2.17c10.88,0,26.1,2.18,26.1,10.88,0,13.05-19.57,32.62-73.94,56.54-56.55,26.1-104.4,13-117.45,10.88h0c-4.35,4.35-30.44,30.45-104.39,15.22-54.37-8.7-67.42-15.22-80.47-30.45-4.35-4.34-6.52-10.87-2.18-21.74,2.18-2.18,2.18-4.35,0-4.35-82.64-17.4-132.66-69.6-150.06-102.22-8.7-17.4-6.53-28.28-2.18-34.8,6.53-10.87,28.28-10.87,50-4.35,26.09,6.52,39.14,10.87,43.49,10.87,2.18,0,2.18,0,0-2.17-6.52-8.7-28.27-37-39.14-54.37C206.61,165.29,182.69,87,245.76,54.37c67.42-37,128.32,28.27,141.37,43.5,10.87,15.22,34.79,45.67,37,50,4.35,6.53,6.52,2.18,6.52,2.18Z" fill="url(#a)"/></svg>